<svg width="600" height="230" viewBox="0 0 600 230" fill="none" xmlns="http://www.w3.org/2000/svg">
<g clip-path="url(#clip0_2_2)">
<rect width="600" height="230" fill="white"/>
<path d="M282.609 192.503V213.612H277.788V192.626C277.788 186.481 273.256 181.61 267.299 181.61C261.342 181.61 256.721 186.476 256.721 192.626V213.596H251.972V192.626C251.972 186.481 247.296 181.61 241.394 181.61C235.493 181.61 230.867 186.481 230.867 192.626V213.596H226.19V177.829H230.867V183.13C233.507 179.482 237.714 177.306 242.207 177.264C247.523 177.261 252.404 180.206 254.895 184.917C257.306 180.337 262.133 177.264 268.078 177.264C276.368 177.259 282.609 183.984 282.609 192.503Z" fill="black"/>
<path d="M321.207 200.374L325.171 201.804C323.328 206.831 317.165 213.897 307.595 213.83C299.495 213.71 292.395 208.363 290.019 200.592C289.531 198.912 289.29 197.169 289.307 195.419C289.182 185.668 296.7 177.531 306.401 176.92C316.101 176.309 324.575 183.438 325.667 193.129C325.724 193.434 325.748 193.745 325.739 194.056L294.768 199.731C296.4 205.474 301.621 209.442 307.573 209.462C314.254 209.462 319.576 204.882 321.207 200.374ZM293.989 194.229C293.989 194.659 294.055 195.162 294.055 195.905L320.422 191.112C318.625 185.28 313.251 181.303 307.167 181.303C300.087 181.495 294.347 187.121 293.989 194.218V194.229Z" fill="black"/>
<path d="M368.429 177.829V213.613H363.753V207.814C358.178 214.171 348.999 215.89 341.514 211.979C334.029 208.067 330.171 199.536 332.166 191.308C334.162 183.081 341.495 177.282 349.935 177.259C355.251 177.234 360.307 179.564 363.753 183.627V177.829H368.429ZM363.613 195.704C363.613 187.883 357.656 181.739 350.001 181.739C342.314 181.739 336.083 187.991 336.083 195.704C336.083 203.416 342.314 209.669 350.001 209.669C357.656 209.674 363.613 203.524 363.613 195.721V195.704Z" fill="black"/>
<path d="M412.467 160.372V213.612H407.79V207.814C402.215 214.171 393.036 215.89 385.551 211.979C378.067 208.067 374.208 199.536 376.204 191.308C378.199 183.081 385.533 177.282 393.972 177.259C399.288 177.234 404.345 179.564 407.79 183.627V160.372H412.467ZM407.651 195.721C407.651 187.9 401.694 181.756 394.039 181.756C386.384 181.756 380.36 187.9 380.36 195.721C380.36 203.541 386.384 209.686 394.039 209.686C401.694 209.686 407.651 203.524 407.651 195.721Z" fill="black"/>
<path d="M420.077 195.721C420.138 185.601 428.354 177.441 438.439 177.482C448.525 177.524 456.674 185.75 456.654 195.869C456.634 205.989 448.452 214.182 438.366 214.182C433.496 214.181 428.828 212.232 425.396 208.767C421.963 205.301 420.049 200.606 420.077 195.721ZM452.045 195.721C452.045 187.9 446.093 181.694 438.438 181.694C430.783 181.694 424.826 187.923 424.826 195.721C424.826 203.519 430.85 209.686 438.438 209.686C446.026 209.686 452.045 203.524 452.045 195.721Z" fill="black"/>
<path d="M513.463 177.829L500.92 213.612H496.204L486.183 184.13L476.162 213.612H471.486L459.015 177.829H463.691L473.829 206.96L484.034 177.829H488.282L498.493 206.96L508.697 177.829H513.463Z" fill="black"/>
<path d="M129.013 213.568H88.9281C88.0218 213.568 87.1938 213.053 86.7903 212.238C86.3865 211.42 86.4702 210.445 87.0074 209.708L127.727 154.228C128.176 153.614 128.889 153.252 129.647 153.25C130.398 153.259 131.101 153.621 131.546 154.228L151.588 181.538C152.375 182.611 152.151 184.12 151.087 184.917C150.579 185.299 149.941 185.461 149.314 185.367C148.686 185.274 148.122 184.933 147.747 184.42L129.647 159.725L93.6882 208.73H129.013C130.344 208.73 131.423 209.813 131.423 211.149C131.423 212.485 130.344 213.568 129.013 213.568Z" fill="black"/>
<path d="M210.44 213.568C209.68 213.568 208.964 213.205 208.514 212.59L169.726 159.724L130.939 212.59C130.153 213.652 128.66 213.876 127.599 213.093C126.538 212.291 126.318 210.782 127.103 209.708L167.806 154.228C168.255 153.614 168.968 153.252 169.726 153.252C170.485 153.252 171.198 153.614 171.647 154.228L212.355 209.708C213.144 210.781 212.923 212.292 211.86 213.093C211.45 213.4 210.952 213.567 210.44 213.568Z" fill="black"/>
<path d="M154.823 205.859C154.62 205.63 154.333 205.494 154.027 205.483C153.722 205.473 153.426 205.588 153.208 205.803L153.158 205.859L147.557 211.445C147.331 211.645 147.195 211.928 147.18 212.23C147.165 212.532 147.273 212.828 147.479 213.048C147.503 213.077 147.529 213.103 147.557 213.127C147.753 213.349 148.03 213.485 148.326 213.502C148.621 213.52 148.912 213.419 149.133 213.221L149.222 213.127L153.988 208.362L158.759 213.127C158.976 213.352 159.276 213.475 159.588 213.467C159.9 213.463 160.198 213.342 160.423 213.127C160.881 212.703 160.915 211.99 160.501 211.523L160.423 211.445L154.823 205.859Z" fill="black"/>
<path d="M154.823 199.675C154.619 199.447 154.332 199.312 154.026 199.302C153.721 199.293 153.425 199.41 153.208 199.625L153.158 199.675L147.557 205.295C147.331 205.495 147.195 205.778 147.18 206.08C147.165 206.382 147.273 206.677 147.479 206.898C147.504 206.926 147.53 206.952 147.557 206.976C147.754 207.198 148.031 207.333 148.327 207.349C148.622 207.366 148.912 207.264 149.133 207.066C149.133 207.066 149.194 207.01 149.222 206.976L153.988 202.206L158.759 206.976C158.977 207.199 159.277 207.321 159.588 207.311C159.9 207.314 160.199 207.193 160.423 206.976C160.878 206.551 160.912 205.841 160.501 205.373L160.423 205.295L154.823 199.675Z" fill="black"/>
<path d="M154.823 193.961C154.619 193.732 154.332 193.597 154.026 193.588C153.721 193.578 153.425 193.695 153.208 193.911L153.158 193.961L147.557 199.586C147.099 200.05 147.099 200.798 147.557 201.262C147.778 201.486 148.079 201.612 148.393 201.612C148.706 201.612 149.007 201.486 149.228 201.262L153.993 196.497L158.764 201.262C158.983 201.483 159.284 201.602 159.594 201.591C159.904 201.592 160.202 201.474 160.429 201.262C160.88 200.836 160.909 200.127 160.496 199.664L160.418 199.586L154.823 193.961Z" fill="black"/>
<path d="M170.567 205.859C170.368 205.635 170.088 205.501 169.79 205.486C169.492 205.471 169.2 205.578 168.98 205.781C168.952 205.804 168.926 205.83 168.902 205.859L163.335 211.445C163.109 211.645 162.972 211.928 162.958 212.23C162.943 212.532 163.051 212.828 163.257 213.048C163.28 213.077 163.306 213.103 163.335 213.127C163.552 213.352 163.853 213.475 164.165 213.467C164.476 213.463 164.774 213.342 165 213.127L169.76 208.362L174.525 213.127C174.745 213.353 175.046 213.481 175.361 213.481C175.675 213.481 175.977 213.353 176.196 213.127C176.654 212.663 176.654 211.915 176.196 211.451L170.567 205.859Z" fill="black"/>
<path d="M170.567 199.675C170.368 199.452 170.088 199.317 169.79 199.302C169.492 199.288 169.2 199.394 168.98 199.597L168.902 199.675L163.335 205.295C162.997 205.627 162.895 206.132 163.078 206.569C163.261 207.007 163.692 207.288 164.165 207.278C164.476 207.28 164.776 207.16 165 206.943L169.76 202.172L174.525 206.943C174.724 207.167 175.004 207.301 175.302 207.316C175.601 207.33 175.893 207.224 176.112 207.021C176.139 206.996 176.166 206.97 176.19 206.943C176.649 206.479 176.649 205.731 176.19 205.267L170.567 199.675Z" fill="black"/>
<path d="M170.567 193.961C170.368 193.737 170.088 193.603 169.79 193.588C169.492 193.573 169.2 193.68 168.98 193.883C168.953 193.907 168.927 193.934 168.902 193.961L163.335 199.586C163.109 199.786 162.972 200.069 162.958 200.371C162.943 200.673 163.051 200.968 163.257 201.189C163.282 201.217 163.308 201.243 163.335 201.267C163.557 201.484 163.855 201.603 164.165 201.597C164.475 201.597 164.773 201.479 165 201.267L169.665 196.503L174.414 201.267C174.635 201.491 174.935 201.617 175.249 201.617C175.563 201.617 175.864 201.491 176.084 201.267C176.537 200.801 176.537 200.058 176.084 199.592L170.567 193.961Z" fill="black"/>
<path d="M186.3 205.859C186.102 205.635 185.822 205.501 185.523 205.486C185.225 205.471 184.933 205.578 184.714 205.781L184.636 205.859L179.068 211.445C178.842 211.645 178.706 211.928 178.691 212.23C178.676 212.532 178.784 212.828 178.99 213.048C179.014 213.077 179.04 213.103 179.068 213.127C179.264 213.349 179.541 213.485 179.836 213.502C180.132 213.52 180.423 213.419 180.644 213.221L180.733 213.127L185.499 208.362L190.22 213.177C190.438 213.398 190.739 213.517 191.049 213.506C191.36 213.513 191.661 213.394 191.884 213.177C192.343 212.747 192.372 212.028 191.951 211.562L191.884 211.495L186.3 205.859Z" fill="black"/>
<path d="M186.3 199.675C186.102 199.452 185.822 199.317 185.523 199.302C185.225 199.288 184.933 199.394 184.714 199.597C184.69 199.626 184.664 199.652 184.636 199.675L179.068 205.295C178.842 205.495 178.706 205.778 178.691 206.08C178.676 206.382 178.784 206.677 178.99 206.898C179.015 206.926 179.041 206.952 179.068 206.976C179.285 207.195 179.579 207.319 179.887 207.319C180.194 207.319 180.489 207.195 180.705 206.976H180.733L185.499 202.206L190.22 206.976C190.437 207.199 190.738 207.321 191.049 207.311C191.361 207.316 191.662 207.195 191.884 206.976C192.111 206.777 192.247 206.493 192.262 206.191C192.276 205.889 192.168 205.594 191.962 205.373L191.884 205.295L186.3 199.675Z" fill="black"/>
<path d="M186.3 193.961C186.102 193.737 185.822 193.603 185.523 193.588C185.225 193.573 184.933 193.68 184.714 193.883C184.689 193.91 184.663 193.936 184.636 193.961L179.068 199.586C178.61 200.05 178.61 200.798 179.068 201.262C179.289 201.486 179.59 201.612 179.903 201.612C180.217 201.612 180.518 201.486 180.739 201.262L185.504 196.497L190.225 201.262C190.444 201.483 190.745 201.602 191.055 201.591C191.365 201.593 191.664 201.475 191.89 201.262C192.116 201.062 192.253 200.779 192.267 200.477C192.282 200.175 192.174 199.879 191.968 199.659L191.89 199.58L186.3 193.961Z" fill="black"/>
<path d="M221.683 176.985V176.422C220.792 176.422 220.217 176.234 219.959 175.859C219.701 175.484 219.572 174.635 219.572 173.312V169.129C220.445 170.202 221.54 170.738 222.859 170.738C224.123 170.738 225.21 170.255 226.119 169.29C227.027 168.325 227.482 167.163 227.482 165.804C227.482 164.446 227.027 163.288 226.119 162.332C225.21 161.376 224.123 160.898 222.859 160.898C221.558 160.898 220.453 161.443 219.545 162.533C219.385 161.639 219.251 161.094 219.144 160.898L215.563 161.568V162.131C216.454 162.131 217.028 162.314 217.287 162.681C217.545 163.047 217.674 163.901 217.674 165.241V173.312C217.674 174.652 217.545 175.506 217.287 175.872C217.028 176.239 216.454 176.422 215.563 176.422V176.985H221.683ZM222.297 169.665C221.692 169.665 221.153 169.473 220.681 169.089C220.209 168.705 219.839 168.182 219.572 167.52V164.061C219.839 163.418 220.209 162.909 220.681 162.533C221.153 162.158 221.692 161.97 222.297 161.97C223.277 161.97 224.025 162.328 224.542 163.043C225.059 163.758 225.317 164.678 225.317 165.804C225.317 166.93 225.059 167.86 224.542 168.593C224.025 169.308 223.277 169.665 222.297 169.665ZM235.445 170.738C236.924 170.738 238.193 170.255 239.253 169.29C240.313 168.325 240.843 167.163 240.843 165.804C240.843 164.446 240.309 163.293 239.24 162.345C238.189 161.38 236.924 160.898 235.445 160.898C233.966 160.898 232.697 161.376 231.637 162.332C230.577 163.288 230.047 164.446 230.047 165.804C230.047 167.163 230.577 168.325 231.637 169.29C232.697 170.255 233.966 170.738 235.445 170.738ZM235.445 169.692C234.394 169.692 233.592 169.326 233.04 168.593C232.488 167.86 232.212 166.93 232.212 165.804C232.212 164.678 232.488 163.749 233.04 163.016C233.592 162.283 234.394 161.916 235.445 161.916C236.496 161.916 237.298 162.278 237.85 163.002C238.402 163.726 238.679 164.66 238.679 165.804C238.679 166.948 238.402 167.887 237.85 168.62C237.298 169.335 236.496 169.692 235.445 169.692ZM247.364 170.765L249.662 164.571L252.307 170.765H252.842L255.541 163.472C255.755 162.882 256.004 162.471 256.289 162.238C256.574 162.006 256.957 161.89 257.438 161.89V161.353H253.697V161.89C254.588 161.89 254.846 162.417 254.472 163.472L253.029 167.654L250.303 161.353H249.715L247.551 167.654L245.733 163.472C245.27 162.417 245.591 161.89 246.696 161.89V161.353H241.859V161.89C242.268 161.89 242.611 162.006 242.887 162.238C243.164 162.471 243.426 162.882 243.676 163.472L246.829 170.765H247.364ZM263.264 170.738C264.012 170.738 264.76 170.572 265.509 170.242C266.257 169.911 266.871 169.487 267.352 168.968L266.871 168.378C266.497 168.736 266.025 169.031 265.455 169.263C264.885 169.495 264.377 169.612 263.932 169.612C262.614 169.612 261.665 169.196 261.086 168.365C260.507 167.534 260.298 166.457 260.458 165.134H266.898C267.219 164.008 266.996 163.02 266.23 162.171C265.464 161.322 264.475 160.898 263.264 160.898C261.981 160.898 260.836 161.371 259.83 162.319C258.823 163.266 258.32 164.428 258.32 165.804C258.32 167.181 258.783 168.347 259.71 169.303C260.636 170.26 261.821 170.738 263.264 170.738ZM265.054 164.142H260.618C260.814 163.481 261.139 162.953 261.594 162.56C262.048 162.167 262.56 161.97 263.13 161.97C263.932 161.97 264.498 162.207 264.827 162.681C265.157 163.154 265.232 163.641 265.054 164.142ZM275.45 170.282V169.719C274.559 169.719 273.984 169.531 273.726 169.156C273.468 168.78 273.338 167.922 273.338 166.582V165.107C273.338 164.16 273.579 163.4 274.06 162.828C274.541 162.256 274.986 161.97 275.396 161.97C275.966 161.97 276.251 162.265 276.251 162.855C276.251 163.105 276.345 163.329 276.532 163.525C276.719 163.722 276.937 163.82 277.187 163.82C277.899 163.82 278.255 163.4 278.255 162.56C278.255 162.167 278.073 161.791 277.708 161.434C277.342 161.076 276.821 160.898 276.144 160.898C275.61 160.898 275.075 161.085 274.541 161.461C274.007 161.836 273.606 162.292 273.338 162.828C273.196 161.881 273.044 161.237 272.884 160.898L269.33 161.568V162.131C270.221 162.131 270.795 162.319 271.054 162.694C271.312 163.069 271.441 163.918 271.441 165.241V166.582C271.441 167.922 271.312 168.78 271.054 169.156C270.795 169.531 270.221 169.719 269.33 169.719V170.282H275.45ZM285.043 170.738C285.791 170.738 286.54 170.572 287.288 170.242C288.036 169.911 288.651 169.487 289.132 168.968L288.651 168.378C288.277 168.736 287.805 169.031 287.234 169.263C286.664 169.495 286.157 169.612 285.711 169.612C284.393 169.612 283.444 169.196 282.865 168.365C282.286 167.534 282.077 166.457 282.237 165.134H288.677C288.998 164.008 288.775 163.02 288.009 162.171C287.243 161.322 286.255 160.898 285.043 160.898C283.76 160.898 282.616 161.371 281.609 162.319C280.603 163.266 280.099 164.428 280.099 165.804C280.099 167.181 280.563 168.347 281.489 169.303C282.415 170.26 283.6 170.738 285.043 170.738ZM286.834 164.142H282.398C282.594 163.481 282.919 162.953 283.373 162.56C283.827 162.167 284.339 161.97 284.91 161.97C285.711 161.97 286.277 162.207 286.606 162.681C286.936 163.154 287.012 163.641 286.834 164.142ZM299.741 170.738L303.295 170.068V169.504C302.404 169.504 301.83 169.317 301.571 168.941C301.313 168.566 301.184 167.708 301.184 166.367V153.739L297.175 154.409V154.972C298.066 154.972 298.641 155.16 298.899 155.535C299.157 155.91 299.287 156.768 299.287 158.109V162.48C298.431 161.425 297.345 160.898 296.026 160.898C294.761 160.898 293.67 161.376 292.753 162.332C291.835 163.288 291.377 164.446 291.377 165.804C291.377 167.163 291.835 168.325 292.753 169.29C293.67 170.255 294.761 170.738 296.026 170.738C297.345 170.738 298.44 170.193 299.313 169.102C299.474 169.925 299.616 170.47 299.741 170.738ZM296.588 169.665C295.59 169.665 294.833 169.308 294.316 168.593C293.799 167.878 293.541 166.948 293.541 165.804C293.541 164.678 293.799 163.758 294.316 163.043C294.833 162.328 295.59 161.97 296.588 161.97C297.175 161.97 297.71 162.162 298.191 162.547C298.672 162.931 299.037 163.445 299.287 164.088V167.547C299.037 168.191 298.672 168.705 298.191 169.089C297.71 169.473 297.175 169.665 296.588 169.665ZM312.782 170.738L313.958 168.941C314.795 170.139 315.935 170.738 317.378 170.738C318.643 170.738 319.73 170.255 320.638 169.29C321.547 168.325 322.001 167.163 322.001 165.804C322.001 164.446 321.547 163.288 320.638 162.332C319.73 161.376 318.643 160.898 317.378 160.898C316.06 160.898 314.973 161.425 314.118 162.48V153.739L310.109 154.409V154.972C311 154.972 311.575 155.16 311.833 155.535C312.091 155.91 312.221 156.768 312.221 158.109V170.738H312.782ZM316.817 169.665C316.211 169.665 315.672 169.473 315.2 169.089C314.728 168.705 314.367 168.182 314.118 167.52V164.088C314.367 163.445 314.728 162.931 315.2 162.547C315.672 162.162 316.211 161.97 316.817 161.97C317.815 161.97 318.572 162.328 319.088 163.043C319.605 163.758 319.863 164.678 319.863 165.804C319.863 166.948 319.605 167.878 319.088 168.593C318.572 169.308 317.815 169.665 316.817 169.665ZM325.502 177.521C325.894 177.521 326.223 177.191 326.491 176.529L331.702 163.472C332.129 162.417 332.762 161.89 333.599 161.89V161.353H329.858V161.89C330.41 161.89 330.74 162.001 330.846 162.225C330.953 162.448 330.882 162.864 330.633 163.472L328.922 167.762L326.972 163.472C326.687 162.81 326.606 162.381 326.731 162.185C326.856 161.988 327.221 161.89 327.827 161.89V161.353H323.097V161.89C323.507 161.89 323.836 162.001 324.086 162.225C324.335 162.448 324.602 162.864 324.887 163.472L327.96 170.148L326.624 173.5C326.393 174.089 326.103 174.577 325.756 174.961C325.408 175.345 325.128 175.649 324.914 175.872C324.7 176.096 324.593 176.351 324.593 176.637C324.593 176.94 324.687 177.164 324.874 177.307C325.061 177.45 325.27 177.521 325.502 177.521Z" fill="#2E2825"/>
<path d="M57.166 110.586C43.846 110.586 33.226 106.176 25.306 97.3564C17.386 88.4464 13.426 77.4214 13.426 64.2814C13.426 51.0514 17.386 40.0264 25.306 31.2064C33.226 22.2964 43.846 17.8414 57.166 17.8414C65.986 17.8414 73.636 19.8664 80.116 23.9164C86.686 27.9664 91.771 33.5014 95.371 40.5214L87.001 45.3814C84.121 39.5314 80.071 34.8964 74.851 31.4764C69.721 28.0564 63.826 26.3464 57.166 26.3464C46.906 26.3464 38.671 29.9464 32.461 37.1464C26.341 44.2564 23.281 53.3014 23.281 64.2814C23.281 75.1714 26.341 84.2164 32.461 91.4164C38.671 98.6164 46.906 102.216 57.166 102.216C63.916 102.216 69.856 100.506 74.986 97.0864C80.206 93.5764 84.211 88.8964 87.001 83.0464L95.371 88.0414C91.771 95.0614 86.686 100.596 80.116 104.646C73.636 108.606 65.986 110.586 57.166 110.586ZM111.199 109.506V9.06636H120.109V109.506H111.199ZM148.987 21.7564C147.997 22.8364 146.737 23.3764 145.207 23.3764C143.677 23.3764 142.372 22.8364 141.292 21.7564C140.302 20.6764 139.807 19.4164 139.807 17.9764C139.807 16.5364 140.302 15.2764 141.292 14.1964C142.372 13.1164 143.677 12.5764 145.207 12.5764C146.737 12.5764 147.997 13.1164 148.987 14.1964C150.067 15.2764 150.607 16.5364 150.607 17.9764C150.607 19.4164 150.067 20.6764 148.987 21.7564ZM140.752 109.506V42.0064H149.662V109.506H140.752ZM250.046 40.9264C257.876 40.9264 264.446 43.7164 269.756 49.2964C275.066 54.7864 277.721 61.5814 277.721 69.6814V109.506H268.541V69.9514C268.541 64.1014 266.606 59.1964 262.736 55.2364C258.956 51.1864 254.231 49.1614 248.561 49.1614C242.891 49.1614 238.121 51.1864 234.251 55.2364C230.381 59.1964 228.446 64.1014 228.446 69.9514V109.506H219.401V69.9514C219.401 64.1914 217.421 59.2864 213.461 55.2364C209.591 51.1864 204.866 49.1614 199.286 49.1614C193.706 49.1614 188.936 51.1864 184.976 55.2364C181.106 59.2864 179.171 64.1914 179.171 69.9514V109.506H170.261V42.0064H179.171V51.9964C184.661 44.6164 191.861 40.9264 200.771 40.9264C205.901 40.9264 210.581 42.2314 214.811 44.8414C219.131 47.4514 222.506 50.9614 224.936 55.3714C227.276 50.9614 230.651 47.4514 235.061 44.8414C239.471 42.2314 244.466 40.9264 250.046 40.9264ZM351.568 42.0064H360.478V109.506H351.568V98.5714C344.638 106.581 335.863 110.586 325.243 110.586C315.613 110.586 307.378 107.211 300.538 100.461C293.788 93.6214 290.413 85.3864 290.413 75.7564C290.413 66.1264 293.788 57.9364 300.538 51.1864C307.378 44.3464 315.613 40.9264 325.243 40.9264C335.953 40.9264 344.728 44.9314 351.568 52.9414V42.0064ZM325.378 102.081C332.668 102.081 338.788 99.5614 343.738 94.5214C348.778 89.3914 351.298 83.1364 351.298 75.7564C351.298 68.3764 348.778 62.1664 343.738 57.1264C338.788 51.9964 332.668 49.4314 325.378 49.4314C318.178 49.4314 312.013 51.9964 306.883 57.1264C301.843 62.1664 299.323 68.3764 299.323 75.7564C299.323 83.1364 301.843 89.3914 306.883 94.5214C312.013 99.5614 318.178 102.081 325.378 102.081ZM373.734 109.506V95.1964H383.319V109.506H373.734Z" fill="#524740"/>
<path d="M392.854 109.506V18.7864H422.959C432.859 18.7864 440.734 21.3964 446.584 26.6164C452.524 31.8364 455.494 38.3614 455.494 46.1914C455.494 54.0214 452.524 60.5914 446.584 65.9014C440.734 71.1214 432.859 73.7314 422.959 73.7314H398.524V109.506H392.854ZM398.524 68.1964H422.959C430.969 68.1964 437.359 66.1264 442.129 61.9864C446.989 57.7564 449.419 52.4914 449.419 46.1914C449.419 39.9814 446.989 34.8064 442.129 30.6664C437.359 26.4364 430.969 24.3214 422.959 24.3214H398.524V68.1964ZM498.334 40.9264C503.464 40.9264 508.279 42.3214 512.779 45.1114L510.484 50.5114C506.344 47.7214 502.114 46.3264 497.794 46.3264C491.494 46.3264 486.184 48.5314 481.864 52.9414C477.544 57.2614 475.384 62.6164 475.384 69.0064V109.506H469.714V42.0064H475.384V53.4814C477.814 49.6114 481.054 46.5514 485.104 44.3014C489.244 42.0514 493.654 40.9264 498.334 40.9264ZM551.116 110.586C541.486 110.586 533.251 107.211 526.411 100.461C519.661 93.6214 516.286 85.3864 516.286 75.7564C516.286 66.1264 519.661 57.9364 526.411 51.1864C533.251 44.3464 541.486 40.9264 551.116 40.9264C560.746 40.9264 568.936 44.3464 575.686 51.1864C582.526 57.9364 585.946 66.1264 585.946 75.7564C585.946 85.2964 582.526 93.4864 575.686 100.326C568.846 107.166 560.656 110.586 551.116 110.586ZM551.251 105.051C559.261 105.051 566.101 102.216 571.771 96.5464C577.531 90.7864 580.411 83.8564 580.411 75.7564C580.411 67.6564 577.531 60.7264 571.771 54.9664C566.101 49.2064 559.261 46.3264 551.251 46.3264C543.151 46.3264 536.266 49.2064 530.596 54.9664C524.926 60.7264 522.091 67.6564 522.091 75.7564C522.091 83.8564 524.926 90.7864 530.596 96.5464C536.266 102.216 543.151 105.051 551.251 105.051Z" fill="#23ABE3"/>
</g>
<defs>
<clipPath id="clip0_2_2">
<rect width="600" height="230" fill="white"/>
</clipPath>
</defs>
</svg>
